# xmcd
#
# Track frame offsets:
#	150
#	10968
#	29803
#	41896
#	58085
#	73386
#	90439
#	103250
#	120599
#	135988
#	150660
#	162332
#	177534
#
# Disc length: 2713 seconds
#
# Revision: 1
# Processed by: cddbd v1.5.2PL0 Copyright (c) Steve Scherf et al.
# Submitted via: audiograbber 1.83.01
#
DISCID=b90a970d
DTITLE=Arthur Blanch - What Really Matters
DYEAR=2002
DGENRE=Country
TTITLE0=Keep Her While She's There
TTITLE1=The Dream
TTITLE2=Always Have, Always Will
TTITLE3=Misty Blue
TTITLE4=And My Dad
TTITLE5=Don't Feel Sorry
TTITLE6=What Really Matters
TTITLE7=We Love Who We Love
TTITLE8=Happiness
TTITLE9=I Need A Night Off
TTITLE10=Neighbours
TTITLE11=Summer In The Valley
TTITLE12=Touch Of The Masters Hand
EXTD=
EXTT0=
EXTT1=
EXTT2=
EXTT3=
EXTT4=
EXTT5=
EXTT6=
EXTT7=
EXTT8=
EXTT9=
EXTT10=
EXTT11=
EXTT12=
PLAYORDER=
